# xmcd
#
# Track frame offsets: 
#        150
#        20415
#        33417
#        49442
#        64187
#        81197
#        96302
#        111620
#        139697
#        155737
#
# Disc length: 2349 seconds
#
# Revision: 2
# Processed by: cddbd v1.5.2PL0 Copyright (c) Steve Scherf et al.
# Submitted via: ExactAudioCopy v1.0b4
#
DISCID=8f092b0a
DTITLE=Big Dave McLean - For the blues..."always"
DYEAR=1998
DGENRE=
TTITLE0=Dust My Broom
TTITLE1=Had My Fun
TTITLE2=Sliding Delta
TTITLE3=Going to New York
TTITLE4=My Adorable One
TTITLE5=Cakewalk Into Town
TTITLE6=Rollin' and Tumblin'
TTITLE7=Always
TTITLE8=Just Your Fool
TTITLE9=The Red Rooster
EXTD=Big Dave McLean - national steel, 6 string acoustic, harmonica an
EXTD=d vocals\nColin James - national steel, 6 string acoustic, fender
EXTD=electric\nNorm Fisher - upright bass\nEric Webster - piano\nChri
EXTD=s Norquist - drums and percussion\nJohnny Ferriera - saxophone\n\n
EXTD=All songs arranged by Big Dave McLean\nRecorded and mixed at Rat'
EXTD=s Add Studios, Vancouver, Canada
EXTT0=(E. James) Arc Music Corp., BMI
EXTT1=(James Oden) Arc Music Corp.
EXTT2=(John Hurt) Wynwood Music, BMI
EXTT3=(J. Reed)
EXTT4=(C. Thompson/I. Berger) Duane-Bernetta, BMI
EXTT5=(Taj Mahal) Bit Toots Tunes, EMI - Blackwood Music, BMI
EXTT6=(McKinley Morganfield) Watertoons Musics, BMI
EXTT7=(Big Dave McLean) Stony Plain Music SOCAN
EXTT8=(Willie Dixon) Hoochie Coochie Music, Bug/Arc Music Corp., BMI
EXTT9=(Willie Dixon) Hoochie Coochie Music, BMI
PLAYORDER=
